<svg id="圖層_1" data-name="圖層 1" xmlns="http://www.w3.org/2000/svg" viewBox="0 0 1238.01 1409.94"><path d="M972.8,1284.29c4.09,36.42,7.71,72.91,12.17,109.3,1.18,9.57,1,19.3,2,28.89.05.45.08.87.1,1.29,6.3-.34,12.6-.49,18.91-.56-.25-1.94-.45-4.3-.68-7.17-3.37-41.48-9.26-82.69-13.83-124-3.38-30.69-8.78-60.77-18.23-90.1a157.83,157.83,0,0,0-12.56-28.53c-4.72-8.41-10.38-16.23-14.45-25.09-4.71-10.23-13.71-15.4-24.8-16.71s-22.45-1.81-33.42-.19c-18.71,2.75-30.16,15.75-39.37,31.14-6.48,10.85-6.49,23.34-8.61,35.16-8.29,46.2-5,92.25,3.09,138.19a144.44,144.44,0,0,1,2.32,27.36c-.38,21.88,1.49,43.6,3.36,65.33a14.73,14.73,0,0,1-.21,4.7c6.14-.38,12.28-.87,18.43-1.38-.31-1.51-.52-3.45-.77-6q-2.59-27-2.65-54.08a266.31,266.31,0,0,0-5-49.46c-6.52-33.83-8.14-67.84-3.88-102.11,1.73-14,1.5-28.17,5.06-42,4.34-16.78,21.7-31.09,38.82-31.56a28.63,28.63,0,0,0,3.71-.16c18.34-2.9,30.3,3.91,36.32,22,2.44,7.36,8.64,13.16,11.75,20.58C963.18,1219.67,969.13,1251.54,972.8,1284.29Z" transform="translate(-89.66 -27.45)"/><path d="M934.74,574.24c1.46-19,11.78-31.45,28.93-33.48,17-2,34-3.1,51.07-4.59,17.33-1.51,34.74,1.53,52-.87,27.67-3.84,53.84-13.23,80.09-22.18,24.11-8.23,43.5-25.47,66.75-35.62,17-7.39,28.34-22.09,40.66-35.35,19.64-21.12,35.2-44.79,45-72,10-27.85,16.37-56.62,20.82-85.85,3.47-22.77,8.53-45.34,7.46-68.61-1-21.48-4.56-42.34-14.3-61.78-15.71-31.33-38.67-56.79-64.47-80C1224.64,52.22,1197.65,36,1166,28.34c-22.69-1.67-45.42-.44-68.19-.62-4.52.75-8.94,1.48-13.34,2.25-19.44,3.37-37.48,11.16-56,17.56-25.52,8.83-50.62,18.82-75.25,29.79-36,16-72.56,30.7-109.14,45.35C829.4,128.54,814.19,133,800.75,142c-18.71,12.49-31.52,29.86-42.87,48.63-5.26,8.7-10.31,17.61-11.85,27.86-2.82,18.86-.78,37.53,2.21,56.21,3.55,22.18,10.94,44,7.85,66.88a253.87,253.87,0,0,0,.21,68.12c4.64,34.59,12.63,68,33.6,97.17,9.39,13.05,21.72,20.5,36.56,25,14.34,4.35,29.1,1,43.6,2.6,12.12,1.35,17.88,6.76,17.16,18.73a163.11,163.11,0,0,1-5.52,32.16c-.58,2.17-1.21,4.44-3.86,5-5.32,1.09-7.51,5.29-9.61,9.56-1.94,4-3.88,7.89-7.34,10.93-6.16-4.34-12.73-5-19.5-5-36.69.09-72.47,6.48-107.8,15.8-7.47,2-14.93,3.59-22.71,3.25-30.69-1.35-61.43-1.51-91.92-6.16-16.12-2.45-32.4-3.83-48.56-6-11-1.47-21.07-7.32-19.2-21.75,1-7.81.66-15.8,1.92-23.68,1-6.21,4-10.47,9.55-13.23a101.49,101.49,0,0,1,28.16-9.12c26.43-4.4,44.84-18.65,58.81-41s18.21-47.5,23.88-72.22c5.12-22.28,6.82-45,1.49-67.73-1-4.33-2.43-8.75-2.37-13.11.23-16.9,2.16-33.45,8.51-49.48,10.27-25.94,14.84-52.87,10.37-80.8-2.33-14.58-5.33-28.94-17.83-38.89-9.14-7.27-19.86-11.33-31-13.95-25.59-6-47.67-18.68-68.59-34.13C540.85,109,507.56,84.47,470.5,65.51,428.44,44,383.8,35.22,337,36.62,297.51,37.79,263,54.21,229.89,73.56c-17.59,10.27-32.86,24-47.26,38.35-18.87,18.78-41.19,34.65-52.61,60-4.27,9.49-8.52,19-13,28.39C98.66,238.79,90.47,279.68,89.68,322c-.35,18.74,3.49,37.35,6.5,56,4.29,26.57,17,48.86,31.34,70.67,3.39,5.17,6.91,10.44,11.29,14.73,17.23,16.91,36.12,31.7,57.51,43.1a408.79,408.79,0,0,0,71.34,29.5,636.58,636.58,0,0,0,148,27.38c18.5,1.21,37.13,1.72,55.46,5.25,6.3,1.22,11,4,14,9.74,4.7,9,7.45,17.09,1.61,27.76-3.56,6.5-5.77,7.54-11.83,5.94a40.86,40.86,0,0,0-23.38.38c-13,4-26.32,7-39.56,10.19-5.54,1.34-11,2.68-16.21,5.18C373.57,638.4,366.2,670.48,371.36,691c3.15,12.52,10.35,25.59,2.58,39.18-.45.78-.24,1.94-.33,2.93-.72,8.39-1.6,16.76-3.8,24.92-8,29.66-16.59,59.21-21.07,89.65-5.47,37.24-10,74.61-15.37,111.88-.81,5.67.72,9.27,4.55,13.07,27.13,26.86,54.36,53.6,79.55,82.4,12.6,14.4,21.07,29.18,20.24,49.07-.86,20.76-.48,41.62.2,62.4,1.13,34.47,2.39,68.94.7,103.38-1.44,29.43-3.74,58.84-3.83,88.32-.06,22.55.85,45.11,1.53,67.67a16.52,16.52,0,0,1,0,2c5.52-.67,11.05-1.33,16.57-1.86-1.62-42.78-2.55-85.61.87-128.27,4.78-59.52.34-119,1.13-178.48.11-8.14-.08-8.14,2.21-13.26,7.09,7.16,13.66,14.1,16.47,24.15,4.52,16.14,8.21,32.58,15.42,47.85,1,2.2.22,3.76-.88,5.48-4.9,7.71-4.82,16.24-5,25-.25,15.34-1.62,30.66-2.59,46-2,31.48-1.15,63-1,94.49,0,5.89,1.52,11.78,2.34,17.67,2.92,20.14,1.57,39.2,2,58.16a89.4,89.4,0,0,1,17.57,2.45c-.13-23.33.5-46.67-3-69.91-2.93-19.68-1.06-39.51-.74-59.31.48-30.24.27-60.57,4.88-90.46,3.07-19.94.29-16.49,20.72-18.19,14.7-1.23,30.14,2.07,44.82-5.4,12.74,41.87,20.84,83.89,22.89,127,4.75,40.41,2.54,79.64,3.24,118.8a11.36,11.36,0,0,1-.84,5.22l.15.61q10,.09,20,.4c-.88-1.17-1.41-3-1.4-5.79.16-27.72.33-55.49-1.08-83.16-2.13-42-4.8-84.14-15.24-125.15-4.27-16.77-10.11-33.13-13.15-50.23-.34-1.89-1.73-3.65-.37-6.14,5.37-1.77,11.75-1.91,16.12-7.27,4.16-5.09,4.42-10.82.92-15-10-12-20.12-24.07-35.89-29-6.84-2.13-13.88-3.44-20.46-6.64-13.08-6.35-24.46-14.56-33.91-25.74-17.77-21-33.32-43.81-52.2-63.91-1.48-1.57-3.3-3.34-2.48-5.87,3.95-12.11.59-24-.8-36-4.26-36.9-8.07-73.85-12.16-110.77C439.21,844.5,434,824,433.6,802.79c0-2.31-1.05-4.81-2.92-5.82-5.75-3.08-3.86-7.2-2.91-12,2.72-13.76,6.26-27.31,8-41.37,1.07-8.53-.9-14.69-3.92-21.55a11.25,11.25,0,0,1-.62-6.43c.55-.39.94-.9,1.32-.9,16.11.09,18.79-3,16.47-18.69a97,97,0,0,1-.94-10.36c-.32-8.69,1.7-15.93,10.7-20,4.91-2.21,9.12-5.95,13.69-8.92,4.33-2.81,7.57-1.81,9.27,3.1,2.83,8.2,5.19,16.36,5,25.34-.15,8.33,2.87,16.45,3.69,24.87,3.44,35.41,2.95,70.84,1.42,106.27-2,46.59-3.05,93.16.38,139.73.55,7.44,1,14.92-1.16,22.18-1.12,3.78-.17,6.82,2,9.73,15.37,20.48,24.67,44,33.59,67.66a198,198,0,0,0,11.7,24.6c3.61,6.65,14.62,3.94,19.2-4.69,5.57-10.51,11-21.1,16.38-31.69,7.88-15.47,15.66-31,23.52-46.45,2.17-4.28,2.48-8.57.26-12.85a287.16,287.16,0,0,1-28.35-88c-3.55-22.54-4.57-45.35-5.94-68.07-2.49-41.32-3.68-82.72-6.21-124a51.33,51.33,0,0,1,3.63-22.67,180.11,180.11,0,0,0,11.77-51.25L603,633.71c40.1,5.82,79.09,10.51,118.27,7.67,17.85-1.29,35.33-7.25,53-10.81,23.07-4.65,46.18-9.33,70-4.66.5,4.24-2.83,5.84-5,7.85-8.19,7.57-16.64,14.85-24.93,22.32-2.17,1.95-4.2,2.9-7.34,2.09-26.43-6.76-53.12-6.68-79.52-.75-22.54,5.06-45.3,4-68,4.81-14.09.47-28.2,2.56-42.33.19a15.4,15.4,0,0,0-5.87.63c-3.86.9-7,2.89-7.7,7.11-.68,4,1.66,6.9,4.9,8.39,5.25,2.42,5.64,6,5.07,11.27-3.81,35.7-6.72,71.48-7.56,107.38-1,42.62,3.17,85.07,5,127.6,1,22.52,2.81,45,3.57,67.54.51,14.93,2.88,29.55,4.61,44.31,2.27,19.41,2.81,39,4.44,58.52,2,23.95,4.1,47.9,6.61,71.81,2.14,20.37.7,40.6-1,60.87-3,35.81-5.26,71.63-2.86,107.61,1.12,16.81.45,33.7,1.74,50.55,1.14,14.82,1.23,29.72,1.83,44.59.1,2.31.17,4.51-.65,6,6.7.25,13.41.53,20.12.78-1-1.19-1.56-3-1.62-5.65-.48-18.81-1.54-37.6-2.28-56.41-1-25-2.69-50-2.63-75a779.59,779.59,0,0,1,4.49-84.62c2.57-23,1.62-46-.8-69-3-28.34-6.3-56.69-6.84-85.19-.47-24.12-5.8-47.69-6.93-71.71-.36-7.66-1.53-15.28-1.9-23-2.15-44.56-3.87-89.14-6.35-133.69-2.31-41.72,1.86-83.13,4.75-124.62.5-7.13,2.15-14.2,3.45-21.26.35-1.88,1-4.06,2.21-5.36,3.32-3.43,23.26-1.67,26.25,2.29a8.42,8.42,0,0,0,6.21,3.48c19.14,2.2,37.91,7,57.17,8.4a19.49,19.49,0,0,1,2.9.63c18.74,4.83,36.18,9.63,51.55,19.76a9.3,9.3,0,0,0,2.66,1.27c11.5,3.14,11.46,3.31,13.24,15.7,4.11,28.55,4.59,57.27,4.53,86-.08,37,1.09,74-.4,110.89-1.24,31,.55,62-1.1,92.92-1.5,28.18-3.75,56.32-5.65,84.48-.84,12.61-.17,25.24-1.06,37.89-2.13,30.33-4.63,60.61-1.24,91.17,2.91,26.3,3.49,52.87,4.89,79.33,1.44,27.22,3,54.42,5.58,81.57,1.08,11.32,1.49,22.72,3.27,34,.05.32.08.62.1.91,6.18.74,12.37,1.13,18.56,1.27-1.48-2.56-2.07-6.81-2.94-13.89-3.64-29.74-5.69-59.62-7.35-89.53q-2.6-46.76-5.24-93.51c-1.32-24.15-4.18-48.37,0-72.75,2.34-13.57,1.93-27.65,2.45-41.51,1.28-33.69,3.81-67.28,6.57-100.86,1.51-18.31-.23-36.72.15-55,.94-45.64.43-91.27.75-136.91.19-27.74.95-55.52-1.82-83.17A169.87,169.87,0,0,0,802.4,698c-3-7.06-8.77-8.39-14.85-3.65-1.92,1.49-3.31,2.76-5.81,1.44-18.42-9.77-38.51-14-58.75-17.75-.38-.07-.68-.57-1.66-1.43,15.19-3.46,30-5.21,45.06-4.51,13.84.65,27.65,1.84,41.42,3.67,10.39,1.37,16.51-6.77,23.29-12.68,9.08-7.9,17.78-16.23,26.16-23.93,2.94,1,3.25,2.45,3.43,3.93,2.81,23.57,5.63,47,3.74,71-2.56,32.58-5.91,65.12-7,97.84-1,29.7-3.71,59.31-6.67,88.89-1.8,18-.1,36.59-4.12,54-4.37,18.94,6.05,31.61,13.09,46,9.92,20.26,20.66,40.11,31.06,60.14.11.22.32.41.37.64.92,4.48,2,9.6,7.49,9.61,5.88,0,10.64-3.15,13.88-8.54a428.11,428.11,0,0,0,36.77-77.87c3-8.5,8.06-15.92,13-23.34,3.57-5.37,4-10.1.38-15.78-5-8-5.33-17.5-7-26.44-5.8-31.65-12.15-63.28-15.86-95.2-1.36-11.76-3.05-23.64-3.93-35.53-1.76-23.71-3.44-47.44-5.35-71.14-1.15-14.34-1-28.73-1.79-43.09-.56-10,8.28-17.39,13.16-26.29,5.44,3.4,6.82,7.74,5.8,13-1.8,9.23-3.61,18.46-5.65,27.64-2.2,10,5.34,17.49,15.38,14.94,3.78-1,7.42-2.43,11.94-3.95-.35,7.8.11,14.87-1.18,22-2.33,12.82,5.89,19.72,17.95,15.16,15.16-5.74,29.5-12.58,36.08-29.07.41-1,1.51-1.79,2.54-3,5.49,4.45,6.55,10.72,8.4,16.44,10.42,32.3,21,64.61,28.87,97.63,6.54,27.49,14.15,54.66,21.93,81.79,1.91,6.67,3.93,13.3,5.94,19.93a6.41,6.41,0,0,0,1.19,2.7c5.07,4.88,10.94,8.75,15,15,2,3.06,7,2.32,9.68-1.28a41.21,41.21,0,0,0,5.46-8.82c11.54-28.42,23.77-56.49,34.26-85.41,14.29-39.42,26.53-79.4,39.07-119.34,6.4-20.38,3.86-40.4-1-60.45-3.41-14-7.8-27.57-15.94-39.79A26.9,26.9,0,0,1,1190.82,637c1.89,4.39,5.53,5.28,9.86,4.68s6.57-4.41,5.66-7.42c-3.25-10.77,5.12-17.37,8.36-25.7,1.65-4.24,4.45-8.16,6.65-12.4-2.22,6.22-.82,12.81-2.6,19.11-1.19,4.22,3.48,6,10.51,4.32,0-3.91.1-6.82,3.1-9.64a14.22,14.22,0,0,0,3.76-7.13A76.56,76.56,0,0,1,1253.87,567c-3.24,18.45-13.84,34.54-22.86,51.33,3.24,9.55,10.55,11.7,19.32,6.58,6.35-3.71,12.66-7.48,19.39-10.71a77.83,77.83,0,0,1-12.7,16.08c-1.35,1.3-3.16,2.75-2.28,5.08.94,2.48,3.27,2.87,5.5,3.12,8.54,1,13.56-4.89,19.26-9.81-3.06,5.72-6.34,11.19-11.11,15.73-14.52,13.83-27.36,29.39-41.67,43.27-8.75,8.49-10.56,18-14,28-15.92,45.93-26.16,93.67-43.46,139.06-14.1,37-27.17,74.56-47,109.15-3.26,5.71-6.34,11.72-12.91,15.79-10.11-24.07-24.45-45.54-32.64-70.16-8.12-24.44-18.94-47.89-29.32-71.5-10.58-24.09-22.6-47.43-34-71.12-2.25-4.72-5.43-7.83-11.18-5.49-5.32,2.16-6,6.55-4.37,11.11,3.22,8.77-.15,17.23-.82,25.73-1.94,24.43-3.77,48.91-7.23,73.15-3.89,27.17-2.78,54.44-3.38,81.65-.94,42.84.5,85.6,3.69,128.43,2.49,33.39,12.89,65,16.8,98,2.38,20,3.09,40,5.38,59.93,3.92,34.16,5.37,68.55,10.85,102.59,3.34,20.76,3.62,42,4.43,63,.22,6,.69,12,1.09,18,6-.06,12-.2,18-.48a43.53,43.53,0,0,1-.59-5.17c-.72-52.9-10.58-104.93-15.22-157.46-1.55-17.54-1.93-35.15-3.84-52.63-2.86-26.35-6.61-52.61-13-78.36-3-12.25-1.59-24.69-3-37-2.53-22.64-5.77-45.31-6.34-68Q1003.29,966,1005,908c.86-29.95,4.5-59.78,8-89.56.24-2.07-.17-4.61,2.57-5.47a4.82,4.82,0,0,1,3.09,3.16c8.31,19.08,17,38,24.79,57.32,11.27,27.76,19.21,57,34.15,83.1,7.53,13.15,9.89,29.47,26.19,37.83,10.78,5.53,18.79,3,24.82-5.7,11.79-16.93,21.09-35.43,28.82-54.48,17.31-42.69,35.53-85.12,47.08-129.88,7.56-29.29,17.73-57.78,25.47-87,3.32-12.55,9.89-23.31,18.37-32.67,9.28-10.24,19.56-19.6,29.64-29.09,12.4-11.67,22-25.4,30.08-40.23,1.63-3,3.35-6.68,3-9.81-.78-6.71.46-13,1.37-19.51,1-7.48-4.78-14-10.87-12.59-6.93,1.59-13.57,4.09-19.39,8.68-7.07,5.57-12.84,12.9-21.47,16.85-.81-2.8-.13-4.91.56-7,4.48-13.85,11.8-26.66,15-41,1.15-5.22,2.63-10.46-1.75-14.68-4.1-4-9.2-3.21-14-1.17-4.54,1.94-7.69,1.65-10.47-3.12-3.68-6.34-9.37-7.29-16.08-4.57-9.2,3.75-13.1,11.34-16.06,20.13-6,17.83-12.38,35.53-18.68,53.26-1.34,3.77-2.85,8.25-7.29,8.6-4.67.36-6.72-4.16-9.32-7.47-5.34-6.8-10.68-13.71-19.12-17.06-6.46-2.57-15.24,1.66-15.46,8-.37,10.54,1.37,21.45,8,29.49,11.61,14.07,17.65,30.44,22.32,47.37,2.73,9.84,4.42,20.42,2.73,30.75-3.51,21.33-11,41.63-17.07,62.3-12.19,41.65-29.08,81.66-43.71,122.46-3.16,8.82-8.77,16.76-13.55,25.66-4.67-5.21-4.39-10.75-5.56-15.63-5.77-24.09-14-47.51-19.32-71.73-4.16-18.83-8.58-37.69-14.46-56-5.75-17.91-11.8-35.75-17.78-53.61-3.22-9.63-6.72-19.79-14.2-26.66-5.81-5.33-7-11-5.26-17.09,6.36-22.79-13.21-47.58-35.49-50.41-9.83-1.25-20-3-28.28-8.46-7.51-5-14.16-10.07-23.4-4.59-1.6-3.9-2-7.89-4.17-9.59-5.3-4.12-4.8-9.3-4.5-14.75C934.51,579.69,934.54,577,934.74,574.24Zm-427,534.52c1.58,1.92,3.08,3.93,5.5,4.88,15.38,6.11,29.77,14.59,46.17,18.35,7.53,1.72,13,7.85,20.8,13.06-8.07-1.19-13.67-4-19.13-7.44-8.62-5.37-20.24,1.14-20.48,11.48-.13,5.49,1.25,10.71,3,16.09-2.65-3.09-5.15-6.32-8-9.25-5.07-5.26-10.62-5.84-15.05-1.9-6,5.32-2.73,9.52,1.55,13.68a5.15,5.15,0,0,1,2,5c-5.67-1.54-9.24-4.84-11.88-9.73-3.24-6-4.14-14.18-14-14.12-2.24,0-2.76-3.83-3-6.27-1.11-10.44-6.61-19.69-7.95-30.07-.33-2.51-2.31-4.28-3.89-6.21-26.5-32.43-53-64.83-81.85-95.25-12.08-12.77-24.91-24.83-37.41-37.21-10.79-8-15-16.77-11.86-29.9,7.39-30.64,8.1-62.34,13.2-93.37,4.82-29.35,11.18-58.33,20.15-86.71,2.59-8.19,3.34-17,8-24.86,5.94,1,11.56,1.5,17.13-2.16,3.8-2.5,8.69,2,7.93,6.91-3.33,21.56-7.26,43.09-15.18,63.45C388,847,380.78,888.56,373.21,930.28c-2.44,13.46-.32,20.56,10.3,28.79,21.17,16.4,34.18,40.32,51.25,60.55C459.51,1049,483.43,1079,507.7,1108.76Zm-111.3-402c3,1.63,2,4,2.65,5.77.05,3.55,2.64,5.82.73,9.05C394.64,717.39,398.38,711.82,396.4,706.76Zm38.33,279.66c-4.72,1-5.85-2.18-7.13-4.18-8.8-13.7-20.47-24.87-31.83-36.27-4.62-4.64-6.44-8.83-5.31-15.62,5.54-33.49,11-67,22.53-99.08.58-1.62.68-3.43,2.74-4.77,2.23,1.8,2.1,4.55,2.62,7C428.11,884.84,428.68,935.89,434.73,986.42ZM467.39,643c-10.71,3.85-20.1,10.51-29.48,16.93-3.66,2.5-4.66,6.81-6.7,10.93-8.88-7.28-13.07,2.78-19.52,5.14L405,669.24c-3.62-.64-5.8.46-8,1.7-3.19,1.79-7,2.58-9.69.08s-1-6.06-.08-9.1c4.1-12.84,13.69-20,26.1-22.75,15.19-3.31,30.38-6.59,45.5-10.22,5.82-1.4,11.23-.37,16.58,2.8C475.65,637.65,473.41,640.81,467.39,643Zm85.34,3.17c-2.26,9.6-3.78,19.39-7.77,28.52-8.74,4.48-17.05,4.33-25.35,3.52-1.21-2.54.4-4.18,1.46-5.61q11.48-15.5,23.25-30.75c1.59-2.05,3.49-5,6.61-3.48C554.28,639.93,553.45,643.08,552.73,646.14ZM512.07,791.6c5.63,2.15,10.11,5.64,14.39,9.2s8.47,6.76,14.38,6.57c2.79-.09,4,1.57,4,4.21-.09,6.12,1,12.27-.3,19.11-13.13-4.28-20.88-16.82-33.85-20.41C510.25,803.41,508.75,797.47,512.07,791.6Zm-2-53.84c6.27.28,9.76,3.7,13.75,5.91a54.47,54.47,0,0,1,7.43,4.85c3.11,2.46,9.08.76,10.09,5.08,1.54,6.57,1.48,13.51,2.16,21-6.86-1.22-10.94-5.42-15.71-8.11-5.09-2.88-8.83-7.91-14.83-9.49-2.74-.72-2.8-3.11-2.86-5.39C510.09,746.27,510.09,742.19,510.09,737.76Zm5,113c7.12,4.93,14,10.19,20.95,15.35a12.38,12.38,0,0,1,2.78,2.45c2.53,3.51,9.08.83,9.94,5.08,1.54,7.64,1.56,15.58,2.3,24.32-7.64-2.67-12.74-7.32-18.22-11.31-7.15-5.2-12.83-12.45-21.69-15.27-2.64-.84-2.67-3.3-2.66-5.57,0-4.46.1-8.91.16-13.37C510.38,846.5,513.27,849.54,515.07,850.78ZM476.23,550.25c-43.23-3-86.67-4.41-129.42-11.94-37.12-6.54-74-15-108.86-29.64-30.73-12.91-59.95-29.19-83.34-53.46-22.13-23-35.68-50.77-42.14-82.25-9.24-45-6.43-89.38,6.5-133,8.53-28.78,19.71-57,37.64-81.31,14.57-19.72,34.47-34.81,52.46-51.5,24.44-22.69,53.75-37,84.15-49.47,8.84-3.63,18.26-4.67,27.64-5.3,60.81-4.12,117.21,9.74,168.57,42.69q33.76,21.65,65.73,46c23.85,18.19,49.19,34,79.13,41.35,12.81,3.12,25.93,7.65,33,20.77,7.69,20.52,8.6,40.44,4.38,60.77-2.32,11.14-4.18,22.3-8.37,33-2.33,6-5.22,9.12-11.7,9a30.37,30.37,0,0,0-8,1.37c-2.31.62-5.27,1-5.19,4.32.07,3,2.24,4.63,4.86,6,3.92,2,8.43-.2,12.64,2.11-.34,5.59-.63,11.22-1,16.84-.2,2.9-2.35,3.4-4.75,3.6-3.22.27-6.41.73-9.62,1-4,.33-7.53,1.6-8.77,5.68a11.43,11.43,0,0,0,2.62,11.76,22.45,22.45,0,0,0,15.23,6.94c6,.39,8.45,3,8.66,8.68.89,25.07,0,49.94-7,74.27-3,10.47-5.9,20.93-9.73,31.18-4.91,13.14-13.79,23.46-22.23,34-7.13,9-18.63,9.53-28.78,12.51-17.34,5.09-34.73,10.07-49.65,21-3.16,2.31-4.12,5.39-4.69,8.88-2.25,13.92-4.63,27.85-3.31,42,.51,5.45-1.5,8-7,7.48a6,6,0,0,0-.74,0c-16,.64-16.08.64-16.39-15.2-.2-10-4-18.85-8.92-27.22C494.5,554.49,486.52,551,476.23,550.25ZM497.45,649c-2.09-6.19-3.39-11.17-.53-16.69,4.18-8.05,8.21-10.26,17.23-8.25,3.09.69,4.8,2.34,3,5.13-4.77,7.21-9.82,14.25-15,21.18C499.9,653.39,498.46,651.4,497.45,649Zm10.86,48.17H536.9c2.12,7.56,4,15.39,3.4,23.59-2.39,1.88-4.28.33-6.22-.52-9.68-4-14.32-13.75-24.2-15.88C507.41,703.86,508.16,700.2,508.31,697.21Zm50.59,338.21c-7.1-3.19-12-8.62-18-12.25-18.23-11-20.82-31.24-29.24-48-.36-.71.13-1.83.23-2.89,4.28.07,7.19,2.58,10.49,4.11,17.07,11,33.21,21.54,49.61,32.2A116.66,116.66,0,0,1,558.9,1035.42Zm10.66-69.11c-3.72,1.47-5.63-.24-7.17-1.41C548,954,532.08,945.35,517.06,935.42c-9.7-6.43-8.21-13.52-8.66-21.64.2-3.2.4-5.11.7-7.85,9.31,2.44,16.39,7.63,23.24,13.13,5.77,4.64,10.65,11.43,17.2,13.86C566.18,939.09,562.33,955.36,569.56,966.31ZM961.79,628.19c9.61,4.07,19.69,6.66,29.78,9.1,10.83,2.61,23.3,11.17,23.68,26.73.1,4.16.16,8.59-5.65,9.73-3.05.6-4,3.4-4.63,6.17a69.84,69.84,0,0,1-4.67,14c.9-4.75,2.1-9.47,2.61-14.26.58-5.45-1.87-9.53-7.62-9.85-6-.34-8.06,3.81-8.17,9.22-.08,4.38.5,8.85-2.18,14.27.32-3.26.51-5.18.71-7.1-.24-8.88-4.8-15-8.39-21.41-2.21-3.93-6.67-3.7-11.09-2.42-1-11.58-4.76-21.07-14.49-27.52-3.81-2.53-1.85-7.31-4-12.49C953.38,624.69,957.6,626.41,961.79,628.19Zm-61.65,26.88c2.29,2.22,3.79,3.8,5.44,5.53-17.48,4.55-26.8-2.78-26.36-21.36Zm-.23,24.32L885.2,703.27l-1.33-.2c0-7.49-.14-15,0-22.47.12-4.81,3.8-3.42,6.62-3.32C894.06,677.82,896.65,677.21,899.91,679.39Zm10.41,36.18c3.07,4.16,2,8.94,2.6,13.37.79,5.6-2.4,7.75-6.75,9.88-5,2.44-6,8.3-9.2,12.32-6.27,8.94-11.93,17-17.88,25.44C873.18,755.85,880.54,741.63,910.32,715.57Zm1-104.27c9.33-3.4,16.34,1.07,15.39,13.44-2.89.17-4.28-2-5.92-3.78C917.33,617.14,913.5,615.06,911.36,611.3ZM874.83,824.89a3.26,3.26,0,0,1,1.4-2.44c12.67-4.43,14.53-18.25,23-26.38,4.43-4.27,8-9.4,12-14.15,2.08-2,2.75-4.17,5.68-4.34.51,5.33,1.12,10.64,1.48,16,.09,1.39-.08,3.33-1,4.17-17.46,17-27.06,39.43-40.9,58.91-1.08,1.53-1.65,3.58-4.9,4.7C872.7,848.81,873.71,836.84,874.83,824.89Zm-7.65,92.91c-.38-7.35-.44-12,7.85-13.49,6-1.06,9.05-7.88,12.53-13,11.29-16.54,22.64-33,34.66-50.56,3.25,8.38,3.39,16.18,4.43,23.77a2.86,2.86,0,0,1-.79,2c-12.4,13-17.41,30.66-28.47,44.53-10.12,12.69-19.75,25.77-30.45,38.35C864.54,938.61,867.67,928.22,867.18,917.8Zm38,124.16c-4.19-1.09-7.95-2.39-9.19-7.18-.14-1.52-.31-2.24-.05-2.47,7.64-6.71,15.33-13.37,23.55-19.62C916.14,1023.09,911.06,1032.47,905.17,1042Zm27.65-124.91c.87-.8,1.71-1.89,3.17-1.15,1.49,5.87,2.28,11,3.59,16,1.71,6.53,1.81,12.18-3.37,17.71-16.36,17.47-32,35.63-49,52.48a25.72,25.72,0,0,1-3.23,2.31c-4.79-4.17-6.37-10.06-9.34-15-1-1.74-.46-3.11,1.12-4.48,13.22-11.4,22.79-25.84,33.09-39.7C916.19,935.29,923.66,925.44,932.82,917.05ZM917.37,569.69c-.27,7.4.23,14.88-2.41,22.49-5,.79-10-.77-15.15-1a88.27,88.27,0,0,1,2.93-23.94c2.45-8.81,2.12-17.67.1-26.49-2.88-12.59-9.68-18.46-23.41-20-8.61-1-17.23-2.11-25.95-1.57-29.53,1.81-49.17-12.51-61.1-38.4C775,443.1,768.74,403.29,770.65,362.05c.05-1,.29-1.93.53-3.43,9.47.31,16.64-3.31,20.57-12.33,1.78-4.07,1.75-7.77-1.33-11s-6.56-2.43-10.27-.9c-6,2.46-7.78,1.1-7.43-5.12.11-2,.82-4,.51-5.91-1.28-7.76-1.37-14.16,8.79-16.26,3.71-.77,6.16-5.3,3.67-9.76s-6.11-2.75-9.59-.94c-1.7.89-3.45,2-6.54,1.23-2.85-8.67-4.11-18.18-5.52-27.59-2.47-16.44-5.11-33.19-1.58-49.55,5.33-24.67,20.77-43.44,39.06-60.07,10.35-9.41,22.67-14.84,36-18.57,27.06-7.56,52-20.46,78-30.85,40.72-16.29,80.94-33.78,122.09-49,29.65-11,59.5-19.73,91.56-20.68,35.3-1.05,65.79,10.68,93,31.78s50.93,45.52,69,75.21C1308,176,1313.66,206,1311,238.07c-1.34,16.09-4.79,31.81-6.8,47.77a538.19,538.19,0,0,1-16,69.21c-7.64,25.25-19.23,48.26-37.14,67.91-12.34,13.54-22.8,29.68-39.44,38-30.54,15.18-58.1,36.37-91.6,45.63-30.86,8.54-61.42,15.86-94.29,13.45-24.94-1.84-50.65-.49-75.24,6.34C929.55,532.14,918.17,547.9,917.37,569.69Z" transform="translate(-89.66 -27.45)"/><path d="M641.33,431.17c2,3.23.4,5.7-.22,8.3-1.64,6.93-3.43,13.66-2.9,21.11.63,8.83-5.79,14.91-12.81,18.6-17.13,9-34.92,7.65-52.42.65-5.55-2.22-9.05-6.8-10.46-12.71-2.29-9.64-4.43-19.25-10.88-27.32-2.72-3.41-2.86-8-2.16-12.16,1.17-7,6.3-8.08,12.31-7.6q16.62,1.32,33.25,2.52c5.38.39,9-.36,10.16-7.37,1.21-7.26,7.83-12.3,12.07-18.51-5.91-6.33-11.82-12.09-15.37-19.5s-3.85-14.82.81-21.87c1.77-2.69,4.17-5.39,7.92-4.13,3.38,1.15,4.82,4.06,4.89,7.6,0,1,0,2,0,3,.08,12.86,3.11,17.16,15.43,22,4.06,1.59,9.05,2.15,9.87,7.73.88,5.87-2.83,9.09-7.28,11.8a10.38,10.38,0,0,0-2.87,2.33c-2.59,3.38-9.48,5.92-7.12,10,2.71,4.71,4.58,12,12.38,12.32,2.12.08,3.76,1.13,5.42,3.26m-20,5.81c-16.94-6.83-34.13-1.45-51.25-1.78.48,1.23,1,1.68,1.61,1.89,6.4,2.15,12.83,2.25,19.62,1.82,9-.56,18.19.6,27.3,1,3.16.13,3.16.1,2.72-2.93m-10.1,29.63c-1.64-3.09-4.67-3.73-7.48-3.11-7,1.52-14,1.14-21,1.75C591.94,467.47,601.06,470.39,611.23,466.61Z" transform="translate(-89.66 -27.45)"/><path d="M479.62,376.43c-2.49,1.71-4.67,1.81-6.83.84-6.78-3.06-10,.59-12.55,6.23-6.93,15.15-5.42,26.1,5.45,37.5,4.2,4.41,8.46,7.07,13.68,1.2,1.81-2,4.12-3.88,7.07-1.52,2.44,1.95,3.83,4,3,7.61-2.79,12.24-12.11,16.89-23.53,11.34-18.2-8.84-26.82-26.77-22.7-46.68.79-3.86,1.49-7.71,2.45-11.56,3.45-13.86,14.07-18.12,26.25-20.63,4.09-.84,6.6,1.62,8.62,4.51C483.05,368.87,483.38,372.62,479.62,376.43Z" transform="translate(-89.66 -27.45)"/><path d="M559.37,358.74c-6-2-11.37-3.86-16.68-5.89-6.21-2.37-9.83-7.31-12.37-13.16-.77-1.78-1.77-3.74.17-5.46,1.79-1.58,3.63-.81,5.54-.06,6.87,2.71,13.78,5.33,22.57,8.71-5.84-6-11.77-8.15-16.69-11.76-1.76-1.29-4.16-2.33-3.11-5.16s3.78-2.93,6.26-2.71c5.35.48,9.79,3.38,14.32,5.88,7.36,4.07,14.6,8.35,21.93,12.47,2.4,1.35,5.06,2.44,4.9,5.82-.17,3.57-2.07,5.78-5.34,7.33A39,39,0,0,1,559.37,358.74Z" transform="translate(-89.66 -27.45)"/><path d="M545.68,288.34c-1.46-4.73-.64-7.49,4.2-4.69,8.85,5.14,18.49,8.08,28.06,11.36,3.14,1.08,7.2,2.36,6.4,6.89-.9,5.09-5.63,4-8.45,3.18C564.71,302,552,301.29,545.68,288.34Z" transform="translate(-89.66 -27.45)"/><path d="M474.37,395.71c1.25,5.1,2.39,9.65,3.06,14.27.78,5.3-2.72,8.45-7.58,6.59-6.08-2.32-10.65-6.36-11.3-13.43-.4-4.35-.19-8.6,4.38-10.91S471.05,391.59,474.37,395.71Z" transform="translate(-89.66 -27.45)"/><path d="M820.82,459.81c-5.65-3.41-12-4.36-18.34-5.58-9.8-1.9-12.05-6.52-11-16.27.77-7.43,4.31-13.25,8-18.93-3-3.38-6.54-4.06-9.43-5.88-6-3.79-6.67-9-1.07-13,10.4-7.46,16.77-16.65,15.06-30.1-.4-3.21.83-6,4.17-7.07,3.95-1.24,7.38.08,10,3.11,5.76,6.54,4,13.86,1.72,21.06a20.93,20.93,0,0,1-3.55,6.48c-4,5.09-3.24,9-1.66,15.75,2.54,10.84,7.28,19.18,13.45,27.74,3,4.23,2.42,10.27,4.75,15.32,2.22,4.8-2.48,7.76-11.6,7.38C820.77,459.77,820.82,459.81,820.82,459.81Z" transform="translate(-89.66 -27.45)"/><path d="M971.87,433.59c-9.22,8.94-15.72,9.47-24.41,2.52-2.31-1.85-3.93-3.91-3-7s3.31-3.91,6.33-4.12c11.18-.79,13-2.24,15-13a56.3,56.3,0,0,0,0-18.5c-.81-5.69-4.06-7.59-9.51-5.61-1.63.59-3.24,1.48-4.92,1.64-4.57.45-8.61-1.21-10.39-5.46-1.58-3.78.36-7.08,3.57-9.68,14.84-12,33.66-5.16,37.41,13.6C985.33,404.53,980.77,419.26,971.87,433.59Z" transform="translate(-89.66 -27.45)"/><path d="M851.62,337.18c13.69.67,26.68,2.35,39.31,6.12,7.23,2.15,12.77,6.69,15.7,13.7,2.86,6.8-.3,11.37-7.56,12.52-4.63.74-8.83-.54-13.16-1.51-10.87-2.43-22.13-2.81-32.8-6.21-5.73-1.83-10.91-4.94-11.15-11.49C841.74,344.26,844.82,339.39,851.62,337.18Z" transform="translate(-89.66 -27.45)"/><path d="M845.68,295.42c6-5.84,10.54-6.61,14.57-1.07,5.9,8.09,14,9.39,22.75,10a89.06,89.06,0,0,1,21.08,4.08c4.66,1.51,8.42,4.28,7.57,9.49s-5.7,4.58-9.63,4.2c-10.56-1-21.17-1.8-31.63-3.47-9.14-1.45-15.91-7.55-22.22-13.87A9.49,9.49,0,0,1,845.68,295.42Z" transform="translate(-89.66 -27.45)"/><path d="M820.74,459.76c2.6,2.47,4.84,5.39,3.35,9.09-1.59,3.95-5.4,4.79-9.29,4.77-2.95,0-6,.24-8.76-1.08-3.83-1.81-8.42-3.54-6.92-8.93s6.1-6.9,11.21-6.27c3.15.38,6.21,1.54,9.9,2.41C820.82,459.81,820.77,459.77,820.74,459.76Z" transform="translate(-89.66 -27.45)"/><path d="M946.71,408.11c-1.5-4.57.95-6.61,4.17-7.77s6.77-1.95,9.74.84a7.53,7.53,0,0,1,2,8.14c-1.55,5.31-5.22,6.82-10.14,4C950.38,412.12,948.21,410.87,946.71,408.11Z" transform="translate(-89.66 -27.45)"/></svg>